<?xml version="1.0" standalone="no"?> <!DOCTYPE svg PUBLIC "-//W3C//DTD SVG 1.0//EN" "http://www.w3.org/TR/2001/REC-SVG-20010904/DTD/svg10.dtd" > <svg xmlns="http://www.w3.org/2000/svg" width="100%" height="100%">
<defs >
<font id="cmunbxo" horiz-adv-x="459" ><font-face
    font-family="CMU Bright"
    units-per-em="1000"
    panose-1="2 0 8 3 0 0 0 0 0 0"
    ascent="934"
    descent="-339"
    alphabetic="0" />
<missing-glyph horiz-adv-x="760" d="M10 10V765H750V10H10ZM70 112L346 388L70 663V112ZM105 70H655L380 346L105 70ZM105 705L380 429L655 705H105ZM414 388L690 112V663L414 388Z" />
<glyph unicode=" " glyph-name="space" horiz-adv-x="348" />
<glyph unicode="!" glyph-name="exclam" horiz-adv-x="367" d="M117 0L145 131H276L248 0H117ZM177 217L264 694L265 695H396L281 217H177Z" />
<glyph unicode="&quot;" glyph-name="quotedbl" horiz-adv-x="550" d="M230 398L261 695H398L303 397H262L230 398ZM414 397L445 695H582L487 397H414Z" />
<glyph unicode="#" glyph-name="numbersign" horiz-adv-x="917" d="M92 145Q92 174 120 180Q126 181 139 181H311L395 346H187Q142 346 142 382Q142 419 189 419H433L559 664Q574 694 597 694Q612 694 622 684T633 659Q633 650 623 629T569 523Q537 461 515 419H672L798
664Q813 694 835 694Q850 694 860 684T871 659Q871 650 861 629T807 523Q775 461 753 419H885Q901 419 908 417Q935 409 935 382Q935 369 926 359T906 347Q900 346 888 346H715L631 181H826Q829 181 833 181T839 182Q885 182 885 145Q885 109 837 109H593L470 -132Q462
-148 454 -156T442 -164T428 -166Q413 -165 404 -155T394 -130Q394 -119 446 -18Q483 55 511 109H355L232 -132Q224 -148 216 -156T204 -164T190 -166Q175 -165 165 -155T155 -130Q155 -120 198 -37Q239 43 273 109H142Q126 109 119 111Q92 118 92 145ZM393 181H550L634
346H477L393 181Z" />
<glyph unicode="$" glyph-name="dollar" horiz-adv-x="550" d="M60 58L103 168Q142 131 173 116T257 91L300 294Q231 311 199 350Q162 394 162 457Q162 495 178 541T219 620Q273 690 387 704L397 750H470L460 704Q538 699 607 650L567 545Q566 546 560 551T548
560T534 570T516 581T495 590T469 598T439 603L401 429Q407 428 416 426T448 412T490 383T523 333T538 257Q538 240 535 216T517 153T479 82T411 24T308 -9L299 -56H226L236 -10Q136 2 60 58ZM287 509Q287 468 332 446L365 602H364Q333 593 315 574T292 539T287
509ZM330 94Q375 107 393 141T412 206Q412 250 369 276L330 94Z" />
<glyph unicode="%" glyph-name="percent" horiz-adv-x="1029" d="M169 479Q169 513 183 572Q231 750 402 750Q548 750 548 620Q548 588 535 530Q489 347 317 347Q169 347 169 479ZM199 -14Q199 4 221 26L899 728Q921 750 938 750T967 738T980 709Q980 693 962
673L280 -33Q258 -55 240 -55T211 -43T199 -14ZM285 468Q285 442 299 431T332 420Q362 420 384 448T416 514T429 578T433 613Q433 677 386 677Q350 677 329 647Q316 627 301 561T285 468ZM628 76Q628 105 642 168Q689 347 862 347Q1007 347 1007 217Q1007 186 994
127Q948 -56 776 -56Q628 -56 628 76ZM745 65Q745 17 791 17Q819 17 840 42T872 102T887 165T892 210Q892 274 845 274Q808 274 788 243Q772 219 759 153T745 65Z" />
<glyph unicode="&amp;" glyph-name="ampersand" horiz-adv-x="831" d="M73 116Q73 206 163 270Q172 277 264 332Q256 374 256 410Q256 534 326 625T490 717Q550 717 591 681T632 584Q632 561 626 542T598 491T526 421T397 336Q430 252 500 163Q646 270 727 444L821
417Q727 225 569 102Q614 78 660 78Q712 78 790 101L768 -5Q703 -22 638 -22Q539 -22 460 33H459Q353 -22 242 -22Q162 -22 118 18T73 116ZM215 140Q215 78 266 78Q321 78 384 100Q347 146 327 178T283 266H282Q233 235 220 180Q215 158 215 140ZM374 469Q374 430
379 403Q456 454 485 492T517 585Q516 617 503 630T474 644Q436 644 405 603T374 469Z" />
<glyph unicode="&apos;" glyph-name="quotesingle" horiz-adv-x="306" d="M200 397L231 695H368L273 397H200Z" />
<glyph unicode="(" glyph-name="parenleft" horiz-adv-x="428" d="M123 102Q123 271 201 448T430 735Q450 750 467 750H525Q498 724 488 713T444 661T390 581T342 476T294 333Q250 163 250 34Q250 9 251 -14T256 -57T263 -93T272 -126T281 -153T292 -176T301 -194T311
-210T318 -223H245Q123 -104 123 102Z" />
<glyph unicode=")" glyph-name="parenright" horiz-adv-x="428" d="M13 -223Q78 -157 109 -114Q229 54 275 340Q288 421 288 493Q288 518 287 541T282 584T275 620T266 653T257 680T246 703T237 721T227 737T220 750H293Q341 698 364 656Q415 560 415 426Q415
256 336 80T108 -207Q87 -223 71 -223H13Z" />
<glyph unicode="*" glyph-name="asterisk" horiz-adv-x="550" d="M158 415Q158 446 180 458T283 496Q321 507 344 514Q338 517 223 558Q195 568 195 592T216 638T261 660Q265 660 267 660T272 659T278 656T284 651T291 644T300 633T313 619T328 601T348 578T372
550V687Q372 713 386 728T412 747T434 750Q452 750 465 740T478 714Q478 711 478 709T477 704T475 698T471 688T465 674T457 655T446 629T431 594T413 551Q540 650 548 654Q558 660 568 660Q587 660 599 646T611 614Q611 588 592 572Q584 565 566 559T424 515Q552
468 562 462Q573 455 573 437Q573 413 552 391T507 368Q503 368 501 368T495 370T489 374T481 380T472 390T460 404T444 423T423 447T397 478V341Q397 321 390 307T370 288T350 280T334 278Q316 278 303 288T290 314Q290 323 316 383Q343 448 356 478Q230 379 219
373Q211 369 200 369Q182 369 170 383T158 415Z" />
<glyph unicode="+" glyph-name="plus" horiz-adv-x="672" d="M117 264Q117 270 119 277T132 292T162 300H362Q407 512 411 519Q421 539 443 539Q457 539 467 529T478 502Q478 497 437 300H606Q638 300 649 294Q666 283 666 263Q666 227 621 227H421Q413 187 379
28Q379 24 377 17T366 -1T341 -11Q327 -11 316 -1T305 25Q305 31 347 227H177Q146 227 135 233Q117 244 117 264Z" />
<glyph unicode="," glyph-name="comma" horiz-adv-x="306" d="M63 -111L126 0H86L114 131H245L222 20L217 1Q201 -21 171 -58T128 -111H63Z" />
<glyph unicode="-" glyph-name="hyphen" horiz-adv-x="367" d="M54 200L70 273H363L347 200H54Z" />
<glyph unicode="." glyph-name="period" horiz-adv-x="306" d="M86 0L114 131H245L217 0H86Z" />
<glyph unicode="/" glyph-name="slash" horiz-adv-x="550" d="M22 -187Q22 -176 37 -149L565 721Q582 750 604 750Q618 750 628 740T639 714Q639 700 626 681L97 -191Q88 -206 81 -213T70 -220T57 -222Q44 -222 33 -212T22 -187Z" />
<glyph unicode="0" glyph-name="zero" horiz-adv-x="550" d="M90 165Q90 182 97 233T119 363T167 522T244 646Q314 717 426 717Q606 717 606 526Q606 470 579 341Q549 200 513 130Q485 76 448 42Q379 -22 270 -22Q90 -22 90 165ZM220 136Q220 90 240 70T286 50Q312
50 335 67T368 98T378 116Q405 165 442 335T479 562Q479 602 460 623T412 644Q359 644 324 590Q293 544 257 370T220 136Z" />
<glyph unicode="1" glyph-name="one" horiz-adv-x="550" d="M91 0L106 73H232L343 591Q280 575 198 575L213 648Q282 648 335 659T411 682T455 706T488 717H507L371 73H488L473 0H91Z" />
<glyph unicode="2" glyph-name="two" horiz-adv-x="550" d="M55 0L76 100Q140 154 194 198T273 262T317 298T344 321T358 334T377 353Q460 437 460 522Q460 564 438 590T374 616Q360 616 347 613T324 607T303 595T285 582T269 565T256 549T244 531T234 515T225
499T218 486L168 574Q261 717 411 717Q500 717 551 668T603 538Q603 502 593 471T568 418T525 370T473 328T409 283T341 233L173 106H232L256 107H449L472 108H517L495 0H55Z" />
<glyph unicode="3" glyph-name="three" horiz-adv-x="550" d="M58 58L95 151Q164 73 274 73Q321 73 356 101Q368 117 373 125T385 151T398 200Q408 249 408 267Q408 292 400 308T375 330T348 337T320 339H256L271 411Q276 411 289 412T306 413T321 415T336 417T348
420T361 425T373 432T386 441T399 453Q430 484 441 521T453 581Q453 628 394 628Q306 628 229 543L193 619Q293 717 418 717Q594 717 594 589Q594 452 441 378Q552 350 552 250Q552 226 547 197T522 128T473 55T387 1T259 -22Q138 -22 58 58Z" />
<glyph unicode="4" glyph-name="four" horiz-adv-x="550" d="M62 152L79 232L84 247L100 271L421 695H576L481 247H571L550 152H460L428 0H303L336 152H62ZM187 247H362L435 592Q409 541 187 247Z" />
<glyph unicode="5" glyph-name="five" horiz-adv-x="550" d="M54 81V82L126 169Q136 129 170 101T257 73Q288 73 311 82T347 104T370 141T385 183T396 234Q397 241 398 244Q411 305 411 329Q411 356 396 367T362 379Q300 379 247 296H145L230 694V695H606L584
594H340L306 435Q343 452 383 452Q455 452 503 418T551 299Q551 230 522 154T432 33Q357 -22 241 -22Q113 -22 54 81Z" />
<glyph unicode="6" glyph-name="six" horiz-adv-x="550" d="M96 176Q96 200 101 245T122 363T171 508T255 629Q346 717 488 717Q536 717 581 696L561 604Q516 628 473 628Q397 628 344 575Q293 519 270 391Q332 493 428 493Q505 493 537 449T569 343Q569 310 556
243T522 132Q503 91 466 53T382 -5Q340 -22 273 -22Q96 -22 96 176ZM227 147Q227 115 243 94T295 73Q312 73 326 77T351 87T369 106T383 127T394 155T402 184T409 219T417 253Q434 330 434 363Q434 420 372 420Q331 420 301 386T255 303T234 213T227 147Z" />
<glyph unicode="7" glyph-name="seven" horiz-adv-x="550" d="M140 -11Q181 177 289 328T549 588H354L330 587H171L194 695H652Q649 680 646 665T641 641T637 624T634 611T631 602T629 595T625 590T621 585T615 579T607 571Q481 441 403 306T282 -11H140Z" />
<glyph unicode="8" glyph-name="eight" horiz-adv-x="550" d="M80 133Q80 195 102 250T169 338Q199 361 249 375Q167 405 167 482Q167 496 170 515T181 562T209 616T254 665T325 703T426 717Q605 717 605 578Q605 482 548 425Q518 394 459 375Q552 343 552 252Q552
201 526 136T450 32Q386 -18 286 -22H253Q80 -16 80 133ZM218 132Q218 103 234 88T289 73Q349 73 374 110T415 249Q418 276 418 277Q418 339 346 339Q319 339 299 330T268 310T248 278T237 247T230 215Q218 155 218 132ZM291 466Q291 440 306 427T356 412H368Q417
413 437 438T468 511Q478 561 478 575Q478 605 461 616T407 628Q353 628 333 604T301 530Q291 480 291 466Z" />
<glyph unicode="9" glyph-name="nine" horiz-adv-x="550" d="M85 26V27L151 110Q188 73 242 73Q315 73 360 127Q404 180 427 304Q365 202 271 202Q230 202 201 215T157 252T135 299T128 352Q128 385 141 452T175 561Q196 606 237 646T329 703Q370 717 429 717Q602
717 602 522Q602 496 596 446T573 320T518 167T425 47Q341 -22 222 -22Q142 -22 85 26ZM263 333Q263 275 325 275Q360 275 388 301T431 363T456 442T470 513T473 556Q473 587 458 607T409 628Q368 628 344 609T302 535T266 369Q263 350 263 339V333Z" />
<glyph unicode=":" glyph-name="colon" horiz-adv-x="306" d="M159 341L187 472H318L290 341H159ZM86 0L114 131H245L217 0H86Z" />
<glyph unicode=";" glyph-name="semicolon" horiz-adv-x="306" d="M159 341L187 472H318L290 341H159ZM63 -111L126 0H86L114 131H245L222 20L217 1Q201 -21 171 -58T128 -111H63Z" />
<glyph unicode="&lt;" glyph-name="less" horiz-adv-x="672" d="M147 266Q149 279 154 285T180 305L640 613Q658 624 668 624Q683 624 693 614T704 589Q704 568 675 550L242 259L548 -29Q566 -47 566 -61Q566 -76 555 -86T529 -97Q525 -97 521 -96T514 -94T507
-89T500 -84T493 -77T486 -70L170 226Q149 245 147 266Z" />
<glyph unicode="=" glyph-name="equal" horiz-adv-x="672" d="M92 145Q92 175 122 181H596Q640 181 640 145T593 109H136Q92 110 92 145ZM142 382Q142 419 196 419H644Q671 419 681 407T691 382Q691 346 646 346H185Q142 347 142 382Z" />
<glyph unicode="&gt;" glyph-name="greater" horiz-adv-x="672" d="M79 -61Q79 -55 81 -50T85 -41T94 -32T103 -25T115 -16T128 -8L541 269L227 562Q217 576 217 590T228 614T253 624T288 605L614 300Q635 279 635 264Q635 245 610 227L143 -86Q125 -97 115 -97Q101
-97 90 -87T79 -61Z" />
<glyph unicode="?" glyph-name="question" horiz-adv-x="519" d="M178 0L206 131H337L309 0H178ZM200 657Q235 673 257 681T318 698T401 706Q486 706 533 681T580 593Q580 513 523 460Q522 459 482 432T410 370T361 291Q356 279 342 217H238Q238 218 241 236T246
259T252 282T262 311T275 339T293 371T316 404T346 440T384 477Q388 481 397 488T408 499T417 508T425 520T432 533T438 552T443 576Q445 588 445 595Q445 617 431 624T389 633H377Q339 633 303 619T253 594T214 563L200 657Z" />
<glyph unicode="@" glyph-name="at" horiz-adv-x="733" d="M121 237Q121 321 154 422T256 592Q370 706 574 706Q680 706 725 661T770 525Q770 477 757 406T732 299Q673 118 482 118Q309 118 309 269Q309 317 327 381T382 492Q452 577 581 577Q615 577 644 570Q626
633 558 633Q318 633 256 353Q242 291 242 245Q242 61 441 61Q497 61 546 75T614 90H690Q641 48 571 19T420 -11Q121 -11 121 237ZM429 275Q429 227 450 209T498 190Q538 190 567 220T609 293T627 368T633 419Q633 467 613 485T565 504Q553 504 541 501T511 487T477
452T449 389Q429 320 429 275Z" />
<glyph unicode="A" glyph-name="A" horiz-adv-x="733" d="M30 0L420 695H606L701 0H548L527 150H250L166 0H30ZM299 237H515L487 459L481 513L478 569Q456 519 299 237Z" />
<glyph unicode="B" glyph-name="B" horiz-adv-x="733" d="M91 0L238 694L239 695H501Q527 695 543 695T588 692T637 684T681 668T719 643T744 605T754 552Q754 495 719 447T614 375Q606 372 590 368T571 363Q717 339 717 231Q717 183 689 130T609 46Q532 0 391
0H91ZM252 87H380Q491 87 536 129Q577 167 577 225Q577 281 531 306Q495 325 417 325H303L252 87ZM318 398H416Q462 398 494 404T547 422T576 444T597 471Q615 502 615 530Q615 557 600 574T558 597T512 606T466 608H363L318 398Z" />
<glyph unicode="C" glyph-name="C" horiz-adv-x="703" d="M120 228Q120 259 124 297T145 393T188 503T263 603T377 680Q463 717 580 717Q684 717 779 682L728 551Q727 552 718 560T705 571T691 581T673 592T652 601T626 610T596 615T561 617Q309 617 270 273Q269
264 269 247Q269 78 450 78Q501 78 541 88T598 107T667 144L654 33Q582 -1 539 -12T423 -23Q120 -23 120 228Z" />
<glyph unicode="D" glyph-name="D" horiz-adv-x="794" d="M91 0L238 694L239 695H532Q596 695 644 685T734 649T797 576T819 459Q819 382 791 286T704 122Q597 0 379 0H91ZM254 87H364Q496 87 561 140T659 337Q675 409 675 455Q675 498 661 528T627 573T577 597T525
606T473 608H365L254 87Z" />
<glyph unicode="E" glyph-name="E" horiz-adv-x="642" d="M91 0L238 692H727L705 587L364 590L326 407H635L615 312H305L262 107H291L542 110L618 111L595 0H91Z" />
<glyph unicode="F" glyph-name="F" horiz-adv-x="611" d="M91 0L238 692H711L690 587L364 590L323 394H602L582 299H302L239 0H91Z" />
<glyph unicode="G" glyph-name="G" horiz-adv-x="733" d="M120 229Q120 274 132 338Q207 717 582 717Q694 717 791 668L740 537Q722 557 712 565T680 589T628 610T560 617Q505 617 459 599T384 552T332 485T299 412T280 339T271 282T269 247Q269 78 446 78Q477
78 540 87L541 88L571 233H476L496 328H728L664 26Q537 -22 420 -22Q120 -22 120 229Z" />
<glyph unicode="H" glyph-name="H" horiz-adv-x="794" d="M91 0L238 694L239 695H387L326 409H641L702 695H850L702 0H554L621 314H306L305 313L239 0H91Z" />
<glyph unicode="I" glyph-name="I" horiz-adv-x="331" d="M91 0L238 694L239 695H387L239 0H91Z" />
<glyph unicode="J" glyph-name="J" horiz-adv-x="519" d="M49 19L96 140Q125 75 199 75Q302 75 316 159L429 694L430 695H575L465 178Q459 148 455 133T440 93T411 49T366 13Q309 -22 228 -22Q135 -22 49 19Z" />
<glyph unicode="K" glyph-name="K" horiz-adv-x="764" d="M91 0L238 694L239 695H369L301 376L690 695H849L513 419L717 0H568L407 331L267 217L221 0H91Z" />
<glyph unicode="L" glyph-name="L" horiz-adv-x="581" d="M91 0L238 694L239 695H387L260 101L530 105H556L534 0H91Z" />
<glyph unicode="M" glyph-name="M" horiz-adv-x="978" d="M91 0L238 694L239 695H419L482 374Q515 198 519 148L538 184L634 344L851 695H1033L886 0H762L877 538L883 569L863 532L766 371L551 22H433L432 23Q337 514 335 569L214 0H91Z" />
<glyph unicode="N" glyph-name="N" horiz-adv-x="794" d="M91 0L238 694L239 695H431L604 120L726 694V695H850L702 0H510L336 574L214 0H91Z" />
<glyph unicode="O" glyph-name="O" horiz-adv-x="794" d="M119 219Q119 299 147 397Q237 717 551 717Q821 717 821 473Q821 407 799 311T727 141Q617 -23 391 -23Q333 -23 286 -11T200 28T140 103T119 219ZM266 219Q266 130 307 95T410 59Q601 59 658 343Q660
349 660 351Q679 446 679 487Q679 571 638 605T532 639Q479 639 436 617T369 565T326 494T300 425T286 367Q285 359 284 356Q266 263 266 219Z" />
<glyph unicode="P" glyph-name="P" horiz-adv-x="703" d="M91 0L238 694L239 695H513Q587 695 638 682T720 631Q749 594 749 536Q749 476 722 415T639 317Q566 268 435 268H296L239 0H91ZM310 347H415Q449 347 471 349T523 363T571 399Q591 424 600 463T609 526Q609
572 577 590T483 608H365L310 347Z" />
<glyph unicode="Q" glyph-name="Q" horiz-adv-x="794" d="M119 218Q119 260 128 313T157 431T220 558T320 656Q415 717 550 717Q675 717 748 660T822 473Q822 393 792 286T699 105Q657 56 603 26L679 -111H505L463 -18Q415 -23 390 -23Q335 -23 290 -12T204 25T142
100T119 218ZM261 212Q261 56 408 56Q422 56 429 57L366 195H511L556 111Q587 141 611 189T647 282T668 375T678 446T680 478Q680 566 638 602T533 639Q339 639 280 352Q277 339 267 283Q261 247 261 212Z" />
<glyph unicode="R" glyph-name="R" horiz-adv-x="703" d="M91 0L238 694L239 695H498Q523 695 538 695T583 691T632 683T676 667T715 640T740 599T751 542Q751 465 700 402T551 321L671 0H523L412 311H302L236 0H91ZM317 384H430Q507 384 548 404T605 487Q611
514 611 534Q611 577 581 592T488 608H365L317 384Z" />
<glyph unicode="S" glyph-name="S" horiz-adv-x="611" d="M59 47L110 179Q110 179 118 170Q127 162 132 158T150 143T174 127T202 112T237 99T277 91T324 87Q368 87 399 101T443 137T460 175T465 204Q465 254 411 276Q401 280 349 292T278 312Q230 331 197 371T164
468Q164 509 184 560T241 646Q316 717 461 717Q567 717 658 668L606 537Q587 557 579 565T549 587T500 607T435 613Q360 613 329 581T297 511Q297 476 326 459T410 430T486 410Q533 390 565 348T597 246Q597 226 593 200T570 133T523 59T436 2T302 -22Q164 -22
59 47Z" />
<glyph unicode="T" glyph-name="T" horiz-adv-x="733" d="M163 584L185 689H839L817 584L564 588L440 0H292L417 588L163 584Z" />
<glyph unicode="U" glyph-name="U" horiz-adv-x="764" d="M132 160Q132 195 145 256L238 694L239 695H387L285 216Q277 176 277 156Q277 103 309 84T397 64Q447 64 481 76T535 113T565 165T584 233L682 694V695H819L725 252Q715 205 701 168T660 94T597 33T506
-7T381 -22Q264 -22 198 19T132 160Z" />
<glyph unicode="V" glyph-name="V" horiz-adv-x="733" d="M162 695H317L385 245L397 154L400 125L418 161L514 331L724 695H864L461 0H270L162 695Z" />
<glyph unicode="W" glyph-name="W" horiz-adv-x="1039" d="M162 695H294L315 317L320 173V126L335 163L414 334L588 695H751L778 196L780 155L781 125L795 160L1051 695H1170L835 0H665L647 319L640 460L636 569L622 536L366 0H202L162 695Z" />
<glyph unicode="X" glyph-name="X" horiz-adv-x="733" d="M15 0L361 368V369L178 695H355L462 487L652 695H819L512 368L717 0H541L414 261L182 0H15Z" />
<glyph unicode="Y" glyph-name="Y" horiz-adv-x="733" d="M150 695H327Q447 445 460 403Q478 432 716 695H876L497 278L438 0H293L349 263Q350 267 350 274Q350 283 344 295L150 695Z" />
<glyph unicode="Z" glyph-name="Z" horiz-adv-x="672" d="M60 0L74 67L553 599L471 598L337 597L237 596L201 595L223 695H758Q745 635 740 628Q738 625 726 611L267 101L385 103L510 104L604 105H638L616 0H60Z" />
<glyph unicode="[" glyph-name="bracketleft" horiz-adv-x="343" d="M37 -222L244 750H477L461 678H362L186 -150H286L270 -222H37Z" />
<glyph unicode="\" glyph-name="backslash" horiz-adv-x="550" d="M213 713Q213 730 223 740T248 750Q263 750 272 741T284 722L286 713L445 -163Q448 -184 448 -185Q448 -201 438 -211T412 -222Q383 -222 375 -186L216 691Q213 712 213 713Z" />
<glyph unicode="]" glyph-name="bracketright" horiz-adv-x="343" d="M-22 -222L-6 -150H93L269 678H169L185 750H418L211 -222H-22Z" />
<glyph unicode="^" glyph-name="asciicircum" horiz-adv-x="672" d="M269 472L412 620H522L602 472H529L453 558L342 472H269Z" />
<glyph unicode="_" glyph-name="underscore" horiz-adv-x="856" d="M28 -297Q28 -289 30 -281T45 -264T78 -255H649Q669 -255 681 -264T696 -281T699 -297Q699 -306 696 -314T681 -330T647 -339H79Q49 -339 39 -325T28 -297Z" />
<glyph unicode="`" glyph-name="grave" horiz-adv-x="550" d="M251 681H388L456 542H383L251 681Z" />
<glyph unicode="a" glyph-name="a" horiz-adv-x="525" d="M55 100Q55 243 313 266L386 270Q402 350 402 366Q402 423 347 423Q304 423 263 407T208 381T165 346L177 446Q277 489 364 489Q538 489 538 368Q538 347 530 307L465 0H331L346 69Q272 -11 168 -11Q115
-11 85 21T55 100ZM188 116Q188 93 202 78T244 62Q279 62 311 82T356 136Q359 146 377 229Q256 220 214 175Q188 147 188 116Z" />
<glyph unicode="b" glyph-name="b" horiz-adv-x="561" d="M60 0L207 694L208 695H341L284 424Q367 483 458 483Q513 483 550 451T587 341Q587 310 581 266T549 156T485 52Q422 -11 323 -11Q251 -11 206 44L197 0H60ZM217 97Q247 62 288 62Q327 62 353 75T396 117T419
170T436 234Q451 303 451 335Q451 411 372 411Q325 411 277 378L217 97Z" />
<glyph unicode="c" glyph-name="c" horiz-adv-x="489" d="M77 154Q77 217 104 298T191 429Q262 489 384 489Q441 489 472 480T546 446L510 351Q472 387 453 396Q422 411 368 411Q274 411 239 301Q234 283 222 228Q211 175 211 153Q211 67 294 67Q336 67 378 82T435
105T477 133L465 35Q371 -11 274 -11Q77 -11 77 154Z" />
<glyph unicode="d" glyph-name="d" horiz-adv-x="561" d="M74 138Q74 176 85 231Q138 483 324 483Q402 483 457 428L514 695H647L499 0H363L374 51Q296 -11 217 -11Q156 -11 115 22T74 138ZM209 138Q209 62 287 62Q336 62 385 103L444 382Q413 411 372 411Q307
411 272 368Q244 334 227 252T209 138Z" />
<glyph unicode="e" glyph-name="e" horiz-adv-x="511" d="M72 160Q72 191 86 259Q143 489 374 489Q545 489 545 341Q545 310 533 250H212Q200 196 200 167Q200 110 229 86T302 62Q394 62 493 129L482 38Q390 -11 281 -11Q72 -11 72 160ZM228 304H431Q432 313 432
330Q432 416 358 416Q317 416 282 387T228 304Z" />
<glyph unicode="f" glyph-name="f" horiz-adv-x="336" d="M85 0L170 400H114L130 472H185Q203 558 211 578Q248 678 362 699Q396 706 439 706Q478 706 528 695L507 594Q494 608 487 614T462 626T422 633Q408 633 398 632T378 626T363 617T352 603T343 587T336
564T330 539T324 508T316 472H415L399 400H304L219 0H85Z" />
<glyph unicode="g" glyph-name="g" horiz-adv-x="561" d="M46 -139L65 -47Q66 -48 73 -54T84 -63T95 -72T109 -82T125 -91T143 -99T163 -106T187 -112T214 -115T245 -117Q273 -117 293 -107T327 -82T350 -38T367 19T382 93Q385 111 387 120Q325 25 233 25Q202
25 177 31T128 53T91 96T77 165Q77 232 108 314T199 440Q257 483 340 483Q416 483 453 413L468 483H602L505 30Q500 9 499 3T491 -27T479 -60T461 -91T436 -123T403 -149T360 -171T304 -184T235 -190Q128 -190 46 -139ZM216 180Q216 135 238 116T292 97Q320 97
343 113T380 156T402 205T415 250H418Q438 347 438 352Q438 370 421 390T372 411Q328 411 295 383T247 313T224 238T216 180Z" />
<glyph unicode="h" glyph-name="h" horiz-adv-x="561" d="M59 0L206 694L207 695H340L274 379Q303 422 349 452T456 483Q516 483 547 463T578 391Q578 368 558 271L500 0H364L433 325Q438 345 438 363Q438 411 384 411Q370 411 355 406T319 388T280 341T251 260L196
0H59Z" />
<glyph unicode="i" glyph-name="i" horiz-adv-x="256" d="M60 0L160 472H294L194 0H60ZM181 573L207 695H341L315 573H181Z" />
<glyph unicode="j" glyph-name="j" horiz-adv-x="286" d="M-102 -148L-65 -76Q-33 -93 6 -93Q35 -93 51 -87T72 -73T80 -52L192 472H326L219 -28Q204 -94 183 -122Q140 -178 41 -178Q-33 -178 -102 -148ZM214 573L239 695H373L347 573H214Z" />
<glyph unicode="k" glyph-name="k" horiz-adv-x="531" d="M68 0L215 694L216 695H333L253 316L435 472H587L377 293L511 0H376L280 209L216 155L183 0H68Z" />
<glyph unicode="l" glyph-name="l" horiz-adv-x="256" d="M60 0L207 694L208 695H341L194 0H60Z" />
<glyph unicode="m" glyph-name="m" horiz-adv-x="867" d="M59 0L160 478H292L270 374Q299 418 345 450T451 483Q478 483 497 481T535 470T565 445T578 402L579 379Q649 483 762 483Q820 483 852 463T884 391Q884 368 864 271L806 0H670L739 326Q744 346 744 363Q744
411 690 411Q676 411 661 407T625 389T585 342T556 260L501 0H364L434 326Q439 346 439 363Q439 411 384 411Q370 411 355 407T319 389T280 342T251 260L196 0H59Z" />
<glyph unicode="n" glyph-name="n" horiz-adv-x="561" d="M59 0L160 478H292L270 374Q342 483 456 483Q515 483 546 463T578 391Q578 370 558 272L500 0H364L433 325Q438 345 438 363Q438 411 384 411Q370 411 355 406T319 388T280 341T251 260L196 0H59Z" />
<glyph unicode="o" glyph-name="o" horiz-adv-x="550" d="M70 154Q70 196 86 260Q147 489 379 489Q577 489 577 317Q577 277 565 221Q511 -11 270 -11Q70 -11 70 154ZM204 147Q204 67 289 67Q311 67 329 73T361 87T385 112T403 140T416 175T426 209T434 247T441
281Q447 315 447 337Q447 416 362 416Q293 416 260 364T207 180Q204 150 204 147Z" />
<glyph unicode="p" glyph-name="p" horiz-adv-x="561" d="M25 -167L161 472H295L284 422Q371 483 467 483Q520 483 554 451T588 345Q588 303 574 236Q570 217 566 202T551 154T521 95T477 44T412 4T325 -11Q252 -11 206 44L162 -167H25ZM218 96Q246 62 286 62Q320
62 348 79T390 117T417 168T432 211T438 238Q447 281 447 312Q447 405 369 405Q322 405 276 373L218 96Z" />
<glyph unicode="q" glyph-name="q" horiz-adv-x="561" d="M74 139Q74 167 79 203T101 290T144 383T221 453T336 483Q414 483 453 410L468 483H602L464 -166L463 -167H327L374 53Q301 -11 219 -11Q158 -11 116 23T74 139ZM212 156Q212 62 288 62Q340 62 389 109Q438
343 438 349Q438 356 433 367T412 392T371 405Q302 405 260 339Q236 300 224 242T212 156Z" />
<glyph unicode="r" glyph-name="r" horiz-adv-x="372" d="M60 0L161 478H290L265 357Q294 406 344 444T459 483L437 382V381Q362 380 313 343T250 260L194 0H60Z" />
<glyph unicode="s" glyph-name="s" horiz-adv-x="422" d="M38 36L80 146Q138 68 232 68Q269 68 291 81T319 108T324 135Q324 153 309 165T277 181T233 191T194 200Q157 213 131 242T105 313Q105 346 121 384T167 447Q218 489 322 489Q402 489 477 456L439 360Q406
389 376 403T292 417Q259 417 240 405T217 380T213 356Q213 333 232 323T290 305T346 292Q382 279 406 249T430 175Q430 140 412 98T362 30Q312 -11 216 -11Q118 -11 38 36Z" />
<glyph unicode="t" glyph-name="t" horiz-adv-x="404" d="M105 400L121 472H190L219 607H347L319 472H455L440 400H303Q245 126 245 112Q245 67 283 67Q327 67 377 103L381 33Q278 -11 187 -11Q108 -11 108 73Q108 79 108 84T110 97T112 113T117 136T122 166T131
206T142 257T155 321T172 400H105Z" />
<glyph unicode="u" glyph-name="u" horiz-adv-x="561" d="M79 74Q79 97 86 127L159 472H296L222 126Q215 88 215 80Q215 63 227 57T269 50Q320 50 351 82T395 152Q397 159 414 238T448 394T464 472H601L500 0H367L383 79Q308 -11 203 -11Q141 -11 110 7T79 74Z" />
<glyph unicode="v" glyph-name="v" horiz-adv-x="500" d="M115 472H238L275 117L463 472H584L335 0H164L115 472Z" />
<glyph unicode="w" glyph-name="w" horiz-adv-x="744" d="M115 472H237L254 177L257 133L421 472H516L537 118L709 472H828L600 0H431L426 77L420 214L419 287L422 335Q411 289 273 0H143L115 472Z" />
<glyph unicode="x" glyph-name="x" horiz-adv-x="500" d="M0 0L244 244L107 472H243L318 337L446 472H581L353 244L500 0H362L282 170L136 0H0Z" />
<glyph unicode="y" glyph-name="y" horiz-adv-x="500" d="M8 -171L21 -69Q63 -93 106 -93Q125 -93 140 -89T165 -79T184 -63T197 -46T207 -28T214 -14Q220 -3 220 4Q220 8 217 20L115 472H244Q247 456 256 416T269 355T280 299T291 235T298 173L297 137Q300 149
306 164T322 202T342 243T368 295T396 348T429 409T463 472H584L325 -1L320 -10Q316 -20 312 -27T300 -47T284 -71T264 -96T238 -121T208 -143T172 -161T132 -173T85 -178Q60 -178 8 -171Z" />
<glyph unicode="z" glyph-name="z" horiz-adv-x="476" d="M30 0L40 49L382 404L315 403H280L204 402H130L146 472H540L534 446L529 428L516 412L190 74L292 75H374L458 76L442 0H30Z" />
<glyph unicode="{" glyph-name="braceleft" horiz-adv-x="550" d="M103 228L119 300Q177 301 226 328T291 403Q301 444 313 502T333 599T345 649Q379 750 601 750H654L638 678H621Q561 678 529 671T489 654T476 625Q468 587 458 537T443 467T431 418T418 379T403
354T382 329T353 309Q288 267 202 264V263Q275 260 322 228T370 141Q370 125 323 -95Q323 -97 322 -100T321 -107T320 -113Q320 -137 353 -143T463 -150L447 -222H387Q181 -222 181 -129Q181 -116 207 3T233 135Q233 162 210 190T127 226L103 228Z" />
<glyph unicode="|" glyph-name="bar" horiz-adv-x="306" d="M72 -180Q72 -173 76 -157L259 705Q271 750 303 750Q320 750 332 738T344 708Q344 704 343 697T341 688L158 -173L157 -178Q156 -182 155 -186T152 -195T146 -205T139 -213T128 -220T114 -222Q97 -222
85 -210T72 -180Z" />
<glyph unicode="}" glyph-name="braceright" horiz-adv-x="550" d="M7 -222L23 -150H39Q101 -150 133 -143T173 -127T185 -98Q231 119 234 127Q254 191 319 225T459 263V264Q395 267 343 297T291 387Q291 399 338 623Q338 625 339 628T340 635T341 641Q341 664
307 671T198 678L214 750H274Q480 750 480 657Q480 644 454 525T428 393Q428 310 558 300L542 227Q484 226 435 199T370 124Q360 83 348 26T328 -71T316 -121Q282 -222 60 -222H7Z" />
<glyph unicode="~" glyph-name="asciitilde" horiz-adv-x="672" d="M212 566Q225 622 273 658T381 695Q436 695 493 667T575 639Q603 639 623 653T649 681L655 695H728Q711 633 662 600T558 566Q514 566 479 580T417 608T365 622Q305 622 285 566H212Z" />
</font>
</defs>
</svg>
