<?xml version="1.0" standalone="no"?> <!DOCTYPE svg PUBLIC "-//W3C//DTD SVG 1.0//EN" "http://www.w3.org/TR/2001/REC-SVG-20010904/DTD/svg10.dtd" > <svg xmlns="http://www.w3.org/2000/svg" width="100%" height="100%">
<defs >
<font id="cmunbmr" horiz-adv-x="427" ><font-face
    font-family="CMU Bright"
    units-per-em="1000"
    panose-1="2 0 6 3 0 0 0 0 0 0"
    ascent="897"
    descent="-264"
    alphabetic="0" />
<missing-glyph horiz-adv-x="760" d="M10 10V765H750V10H10ZM70 112L346 388L70 663V112ZM105 70H655L380 346L105 70ZM105 705L380 429L655 705H105ZM414 388L690 112V663L414 388Z" />
<glyph unicode=" " glyph-name="space" horiz-adv-x="333" />
<glyph unicode="!" glyph-name="exclam" horiz-adv-x="325" d="M123 0V78H201V0H123ZM123 695H201L193 177H131L123 695Z" />
<glyph unicode="&quot;" glyph-name="quotedbl" horiz-adv-x="525" d="M142 695H207L200 386H149L143 658L142 695ZM317 695H382L375 386H324L318 658L317 695Z" />
<glyph unicode="#" glyph-name="numbersign" horiz-adv-x="875" d="M59 158Q59 183 92 183H269L316 345H95Q59 345 59 370Q59 396 93 396H331L408 661Q415 694 437 694Q448 694 454 686T461 670Q461 666 383 396H568L645 661Q652 694 674 694Q698 694 698 669Q698
661 695 652L621 396H781Q816 396 816 370Q816 345 783 345H605L558 183H780Q816 183 816 158Q816 132 781 132H543L466 -134Q460 -166 437 -166T414 -141Q414 -130 416 -124L491 132H306L229 -134Q223 -166 200 -166Q176 -166 176 -141Q176 -133 179 -124L253
132H93Q59 132 59 158ZM321 183H506L553 345H368L321 183Z" />
<glyph unicode="$" glyph-name="dollar" horiz-adv-x="525" d="M46 61L56 119Q103 84 140 68T236 46V331Q189 341 154 360T101 400T73 446T60 486T58 516Q58 585 106 638T236 701V750H287V702Q365 700 448 647L438 592Q409 611 396 618T352 636T287 649V391Q323
384 345 374Q395 353 430 305T465 192Q465 117 415 60T287 -6V-55H236V-7Q133 1 46 61ZM117 525Q117 513 120 500T134 466T170 429T236 403V648Q177 638 147 602T117 525ZM287 47Q338 56 372 93T406 183Q406 226 379 264T287 319V47Z" />
<glyph unicode="%" glyph-name="percent" horiz-adv-x="875" d="M58 549Q58 638 102 694T204 750Q264 750 307 692T350 548Q350 465 308 406T205 347Q147 347 103 404T58 549ZM119 549Q119 460 149 425Q171 398 204 398Q242 398 266 443T291 549Q291 615 266 657T204
699Q182 699 162 684T132 640Q119 606 119 549ZM186 -35Q186 -31 195 -13L651 736Q661 749 671 749Q679 749 684 744T690 730Q690 723 676 700L223 -44Q216 -55 205 -55Q197 -55 192 -49T186 -35ZM524 146Q524 229 567 288T670 347T773 288T816 145Q816 62 774
4T671 -55Q613 -55 569 1T524 146ZM586 146Q586 57 616 22Q638 -5 670 -5Q708 -5 733 40T758 146Q758 212 732 254T670 297Q648 297 628 282T598 238Q586 206 586 146Z" />
<glyph unicode="&amp;" glyph-name="ampersand" horiz-adv-x="783" d="M43 143Q43 160 45 173T56 202T71 226T96 254T125 281T165 316T211 355Q177 457 177 527Q177 606 214 658T312 711Q366 711 401 667T436 566Q436 483 280 350Q334 242 452 115Q469 127 487
145T537 201T597 299T646 431L699 417Q646 216 493 79Q527 57 552 47T615 37Q662 37 724 57V1Q666 -17 614 -17Q527 -17 444 45Q353 -17 237 -17Q153 -17 98 30T43 143ZM108 149Q108 105 143 71T236 36Q315 36 403 81Q345 142 308 190T233 307Q220 297 198 277T168
250Q147 232 140 225T120 195T108 149ZM230 557Q230 484 259 399Q378 498 378 565Q378 584 373 604T352 642T310 661Q281 661 256 635T230 557Z" />
<glyph unicode="&apos;" glyph-name="quotesingle" horiz-adv-x="292" d="M113 695H178L171 386H120L114 658L113 695Z" />
<glyph unicode="(" glyph-name="parenleft" horiz-adv-x="408" d="M91 264Q91 583 299 750H349Q301 705 277 674Q155 515 155 266Q155 -45 344 -218Q348 -221 349 -222H299Q194 -137 143 -11T91 264Z" />
<glyph unicode=")" glyph-name="parenright" horiz-adv-x="408" d="M58 -222Q119 -167 154 -112Q252 41 252 266Q252 577 64 745Q59 749 58 750H108Q213 666 264 541T316 266Q316 127 268 -2T108 -222H58Z" />
<glyph unicode="*" glyph-name="asterisk" horiz-adv-x="525" d="M77 441Q81 456 94 463T236 535Q94 605 87 611Q80 616 77 629Q84 655 103 655H105Q112 655 161 620Q209 586 248 558Q247 577 244 620T238 691T236 722Q236 733 241 739T252 747T262 749Q276 749
281 742T286 712Q286 703 275 558Q294 571 311 583T340 604T363 621T380 633T393 642T403 649T409 652T414 654T418 655H419Q442 655 446 628Q443 615 433 608Q427 604 287 535Q429 465 436 459Q443 454 446 441Q439 415 420 415H418Q410 415 345 461Q304 490 275
511Q276 492 279 449T285 378T287 347Q287 331 279 326T262 320Q248 320 243 328T237 358Q237 366 248 511Q117 418 110 416Q108 415 105 415H104Q81 415 77 441Z" />
<glyph unicode="+" glyph-name="plus" horiz-adv-x="642" d="M59 264Q59 290 93 290H295V491Q295 526 321 526Q346 526 346 492V290H548Q582 290 582 264Q582 239 550 239H346V37Q346 2 320 2Q295 2 295 36V239H94Q59 239 59 264Z" />
<glyph unicode="," glyph-name="comma" horiz-adv-x="292" d="M106 0V78H185V29L184 0L146 -111H106L130 0H106Z" />
<glyph unicode="-" glyph-name="hyphen" horiz-adv-x="350" d="M11 211V261H291V211H11Z" />
<glyph unicode="." glyph-name="period" horiz-adv-x="292" d="M106 0V78H184V0H106Z" />
<glyph unicode="/" glyph-name="slash" horiz-adv-x="525" d="M59 -197Q59 -194 64 -176L411 718Q423 749 441 749Q451 749 458 743T466 725Q466 718 457 695L115 -186Q108 -204 104 -210T91 -220Q87 -221 85 -222H84H83Q73 -222 66 -215T59 -197Z" />
<glyph unicode="0" glyph-name="zero" horiz-adv-x="525" d="M52 310V326Q52 358 53 381T58 442T72 510T97 571T137 626T197 661Q226 672 262 672Q290 672 316 665T372 636T422 580T458 485T472 346Q472 263 466 211T438 107Q409 39 361 11T262 -17Q234 -17 208
-10T152 19T102 75T66 170T52 310ZM116 377Q116 371 116 364T117 355V336Q117 278 118 242T131 159T162 84Q201 34 262 34Q326 34 364 87Q383 114 393 162T405 245T407 338V355Q407 356 407 363T408 376Q408 516 365 572Q328 622 262 622Q194 622 157 569Q116 510
116 377Z" />
<glyph unicode="1" glyph-name="one" horiz-adv-x="525" d="M105 556V607Q223 607 291 672H307V50H438V0H111V50H242V585Q184 556 105 556Z" />
<glyph unicode="2" glyph-name="two" horiz-adv-x="525" d="M43 504Q93 672 248 672H249Q346 671 409 613T472 467Q472 429 459 396T417 331T373 285T322 242Q274 203 257 188T109 56H472V0H52V53L263 244Q335 307 370 356T405 466Q405 534 356 576T234 619Q167
619 134 577T80 459L43 504Z" />
<glyph unicode="3" glyph-name="three" horiz-adv-x="525" d="M44 102Q44 104 44 107T47 121T53 147Q87 100 134 73T209 40T263 35Q330 35 370 76T410 182Q410 246 372 285T277 328L243 329H174V379Q267 386 291 395Q328 409 356 443T385 525Q385 569 353 595T266
622Q152 622 89 509L58 553Q132 672 266 672Q344 672 397 629T451 525Q451 478 423 432T329 355Q403 335 441 287T480 181Q480 104 420 44T264 -17Q219 -17 176 -2T106 34T61 74T44 102Z" />
<glyph unicode="4" glyph-name="four" horiz-adv-x="525" d="M29 181V235L305 664H381V234H495V181H381V0H318V181H29ZM94 234H321V607Q308 573 251 482L94 234Z" />
<glyph unicode="5" glyph-name="five" horiz-adv-x="525" d="M47 81L76 128Q140 35 247 35Q308 35 354 74T401 205Q401 254 389 288T357 340T318 364T277 371Q189 371 147 297H91V655H437V602H152V372Q207 422 278 422Q357 422 414 358T472 204Q472 113 407 48T246
-17Q127 -17 47 81Z" />
<glyph unicode="6" glyph-name="six" horiz-adv-x="525" d="M54 322Q54 480 135 576T324 672H326Q379 672 437 653V601Q371 622 324 622H322Q231 622 176 546T120 345Q120 343 120 339T121 332Q145 382 193 416T305 451Q373 451 419 388Q470 317 470 220Q470 120
409 51Q350 -17 264 -17Q236 -17 210 -9T154 22T104 81T68 180T54 322ZM124 217Q127 183 133 157T154 101T196 53T264 35Q334 35 372 86Q393 115 398 144T404 224Q404 257 402 277T388 326T352 375Q321 401 270 401Q207 401 166 354T125 243Q125 225 126 217H124Z"
/>
<glyph unicode="7" glyph-name="seven" horiz-adv-x="525" d="M43 600V655H480V602Q375 492 306 336T237 -8H170Q170 161 238 320T437 600H43Z" />
<glyph unicode="8" glyph-name="eight" horiz-adv-x="525" d="M43 181Q43 237 81 284T195 354Q142 367 100 406T58 501Q58 569 116 620T262 672Q347 672 406 622T466 502Q466 456 436 420T357 363L328 354Q385 340 432 295T480 181Q480 101 417 42T261 -17Q168
-17 106 43T43 181ZM109 181Q109 110 151 73T261 35Q331 35 372 73T414 182Q414 253 371 291T261 329Q200 329 155 294T109 181ZM118 501Q118 451 153 415T261 379Q327 379 366 411T405 501Q405 548 373 585T263 622Q183 622 151 585T118 501Z" />
<glyph unicode="9" glyph-name="nine" horiz-adv-x="525" d="M54 438Q54 538 120 607Q181 672 265 672Q293 672 318 665T372 635T422 576T456 477T470 332Q470 183 397 83T216 -17Q142 -17 76 29L102 75L113 68Q124 60 131 56T151 47T181 38T215 35Q264 35 302
59T361 124T393 212T404 310V324Q381 274 332 239T219 204Q152 204 106 267Q54 337 54 438ZM120 415Q120 350 151 303T255 255Q318 255 359 302T400 415Q400 430 399 438H401Q394 541 355 581T265 622Q194 622 154 570Q120 526 120 441V415Z" />
<glyph unicode=":" glyph-name="colon" horiz-adv-x="292" d="M106 0V78H184V0H106ZM106 394V472H184V394H106Z" />
<glyph unicode=";" glyph-name="semicolon" horiz-adv-x="292" d="M106 0V78H185V29L184 0L146 -111H106L130 0H106ZM106 394V472H184V394H106Z" />
<glyph unicode="&lt;" glyph-name="less" horiz-adv-x="642" d="M88 264Q90 275 93 280T113 295L509 551Q521 558 529 558Q539 558 546 551T553 533Q553 519 528 503L217 302Q191 284 159 265V264Q179 252 217 226L528 25Q553 9 553 -5Q553 -15 546 -22T529 -30Q518
-30 494 -13L113 233Q97 243 94 248T88 264Z" />
<glyph unicode="=" glyph-name="equal" horiz-adv-x="642" d="M59 166Q59 192 90 192H552Q582 191 582 166Q582 142 549 142H92Q59 142 59 166ZM59 360Q59 386 91 386H552Q582 385 582 360Q582 336 549 336H92Q59 336 59 360Z" />
<glyph unicode="&gt;" glyph-name="greater" horiz-adv-x="642" d="M88 -5Q88 9 113 25L423 226Q454 247 482 264V265Q442 289 423 302L113 503Q88 519 88 533Q88 543 95 550T112 558Q120 558 132 551L527 295Q551 280 553 264Q551 248 527 233L132 -23Q120 -30
112 -30Q102 -30 95 -23T88 -5Z" />
<glyph unicode="?" glyph-name="question" horiz-adv-x="496" d="M58 650Q141 703 237 703Q295 703 337 689T399 650T428 602T437 553Q437 534 433 517T422 488T406 465T390 448T375 435T364 426Q264 339 264 213V177H202Q202 183 202 195T201 213Q201 265 212
308T244 382T282 431T321 467T346 488Q373 515 373 556Q373 610 339 631T242 652Q150 652 77 597L58 650ZM194 0V78H272V0H194Z" />
<glyph unicode="@" glyph-name="at" horiz-adv-x="700" d="M58 347Q58 498 162 600T407 703Q498 703 556 650Q641 574 641 354Q641 247 583 186T451 124Q373 124 317 189T261 347Q261 443 318 506T451 570Q508 570 559 531Q518 652 406 652Q293 652 206 565T119
347Q119 226 201 134T411 42Q454 42 492 51T558 71T587 82Q594 83 608 83H641Q546 -8 409 -8Q266 -8 162 95T58 347ZM322 348Q322 276 360 226T451 175Q503 175 541 224T580 347Q580 419 542 469T451 520Q395 520 359 468T322 348Z" />
<glyph unicode="A" glyph-name="A" horiz-adv-x="675" d="M29 0L299 703H375L645 0H572L491 210H174L94 0H29ZM195 263H471L349 585L333 630L195 263Z" />
<glyph unicode="B" glyph-name="B" horiz-adv-x="687" d="M99 0V695H323Q396 695 452 678T539 633T584 576T599 520Q599 504 593 487T571 446T515 399T417 363Q504 351 566 303T628 188Q628 116 562 64T403 2Q385 0 350 0H99ZM166 53H326Q445 53 503 95T562 189Q562
211 549 234T509 281T431 320T314 336H167L166 297V53ZM166 386H295Q363 389 397 396T474 429Q535 467 535 518Q535 563 476 602T297 641H167L166 605V386Z" />
<glyph unicode="C" glyph-name="C" horiz-adv-x="671" d="M81 252T81 347T121 524T239 659T413 711Q508 711 606 677L593 608Q562 625 545 633T490 649T412 658Q300 658 226 567T151 347Q151 221 225 129T413 36Q464 36 503 46T557 64T612 97L617 39Q581 19 561
10T502 -8T413 -17Q317 -17 240 35T122 169Z" />
<glyph unicode="D" glyph-name="D" horiz-adv-x="746" d="M98 0V695H352Q434 695 500 663T605 578T666 465T687 342Q687 205 602 110T400 2Q383 0 348 0H98ZM167 53H335Q400 53 451 72T533 120T583 189T610 266T618 342Q618 382 611 420T584 499T533 570T451 621T335
641H167V53Z" />
<glyph unicode="E" glyph-name="E" horiz-adv-x="625" d="M98 0V693H566V640H168V387H537V334H168V56H581V0H98Z" />
<glyph unicode="F" glyph-name="F" horiz-adv-x="596" d="M98 0V693H552V640H168V373H508V320H168V0H98Z" />
<glyph unicode="G" glyph-name="G" horiz-adv-x="700" d="M81 347Q81 442 121 524T239 659T412 711H414Q517 711 620 663L608 594Q578 614 560 624T501 646T414 658Q299 658 225 566T151 347Q151 217 226 127T410 36Q475 36 564 63V275H407V328H629V32Q520 -17
411 -17Q272 -17 177 89T81 347Z" />
<glyph unicode="H" glyph-name="H" horiz-adv-x="708" d="M98 0V695H168V388H539V695H609V0H539V335H168V0H98Z" />
<glyph unicode="I" glyph-name="I" horiz-adv-x="267" d="M98 0V695H168V0H98Z" />
<glyph unicode="J" glyph-name="J" horiz-adv-x="483" d="M43 25L54 88Q128 35 196 35Q237 35 266 46T309 70T330 105T338 135T339 157V695H408V155Q408 115 397 85T368 35T326 4T276 -12T223 -17Q135 -17 43 25Z" />
<glyph unicode="K" glyph-name="K" horiz-adv-x="704" d="M100 0V695H166V305L564 695H645L365 420L660 0H584L320 375L166 224V0H100Z" />
<glyph unicode="L" glyph-name="L" horiz-adv-x="567" d="M98 0V695H168V53H523V0H98Z" />
<glyph unicode="M" glyph-name="M" horiz-adv-x="883" d="M101 0V695H193L395 199L441 81L455 121L687 695H780V0H717V630L639 430L470 17H410L200 534L164 630V0H101Z" />
<glyph unicode="N" glyph-name="N" horiz-adv-x="708" d="M100 0V695H198L545 58V695H608V0H510L163 637V0H100Z" />
<glyph unicode="O" glyph-name="O" horiz-adv-x="783" d="M58 346Q58 500 156 605T391 711Q526 711 625 606T724 346T625 88T391 -17T157 88T58 346ZM128 359Q128 215 206 126T391 36Q497 36 575 124T654 359Q654 497 576 578T391 659T207 579T128 359Z" />
<glyph unicode="P" glyph-name="P" horiz-adv-x="658" d="M98 0V695H336Q428 695 493 659Q543 631 571 587T599 494Q599 462 585 429T541 365T459 315T338 295H168V0H98ZM167 347H325Q387 347 431 361T495 399T524 445T533 494Q533 519 525 542T495 589T431 627T325
641H167V347Z" />
<glyph unicode="Q" glyph-name="Q" horiz-adv-x="783" d="M58 346Q58 500 156 605T391 711T625 606T724 346Q724 247 680 165T566 37L695 -111H613L513 8Q452 -17 392 -17Q257 -17 158 87T58 346ZM127 347Q127 212 202 124T391 35Q431 35 476 50L355 195H428L530
78Q592 121 624 191T656 346Q656 481 580 570T391 659Q274 659 201 568T127 347Z" />
<glyph unicode="R" glyph-name="R" horiz-adv-x="671" d="M98 0V695H328Q403 695 460 677T549 629T595 568T611 507Q611 457 577 417T502 357T418 330L641 0H571L355 322H167V0H98ZM167 373H325Q437 373 493 411Q546 447 546 507Q546 555 504 594T367 640Q353
641 324 641H167V373Z" />
<glyph unicode="S" glyph-name="S" horiz-adv-x="583" d="M46 53L58 122Q169 40 288 40Q366 40 413 83T460 180Q460 219 435 253T363 306Q340 315 277 327T166 362T87 429Q57 471 57 522Q57 595 122 653T294 711Q393 711 486 663L474 594Q445 614 429 623T375
644T294 656Q217 656 169 619T121 530Q121 495 145 465T215 417Q233 411 298 396T381 374Q453 347 488 295T524 187Q524 106 457 45T287 -17Q161 -17 46 53Z" />
<glyph unicode="T" glyph-name="T" horiz-adv-x="725" d="M37 639V692H686V639H397V0H327V639H37Z" />
<glyph unicode="U" glyph-name="U" horiz-adv-x="692" d="M98 247V695H168V242Q168 112 249 62Q291 36 347 36Q375 36 401 43T459 71T509 134T528 240V695H593V242Q593 121 518 52T347 -17Q255 -17 185 43T101 194Q98 212 98 247Z" />
<glyph unicode="V" glyph-name="V" horiz-adv-x="675" d="M14 695H88L327 101L340 65L427 285L593 695H659L376 -5H298L14 695Z" />
<glyph unicode="W" glyph-name="W" horiz-adv-x="967" d="M14 695H82L209 271Q261 93 266 65L276 108L330 296L449 695H519L629 333Q700 89 705 65Q708 84 768 288L890 695H951L739 -5H667L514 506L486 605L481 630L473 592L422 416L296 -5H226L14 695Z" />
<glyph unicode="X" glyph-name="X" horiz-adv-x="675" d="M14 0L293 367L29 695H114L329 420L535 695H615L365 366L659 0H574L329 318L95 0H14Z" />
<glyph unicode="Y" glyph-name="Y" horiz-adv-x="675" d="M2 695H87L341 342L595 695H671L371 278V0H302V278L2 695Z" />
<glyph unicode="Z" glyph-name="Z" horiz-adv-x="642" d="M58 0V36L489 643H73V695H583V660L152 53H589V0H58Z" />
<glyph unicode="[" glyph-name="bracketleft" horiz-adv-x="294" d="M113 -222V750H270V700H176V-172H270V-222H113Z" />
<glyph unicode="\" glyph-name="backslash" horiz-adv-x="525" d="M59 724Q59 733 65 740T80 749H87Q91 748 94 746T100 742T105 736T108 729T111 721T115 712L457 -169Q465 -187 465 -197Q465 -220 438 -221Q432 -220 424 -214Q418 -207 407 -179L64 705Q59 720 59 724Z" />
<glyph unicode="]" glyph-name="bracketright" horiz-adv-x="294" d="M23 -172H117V700H23V750H180V-222H23V-172Z" />
<glyph unicode="^" glyph-name="asciicircum" horiz-adv-x="642" d="M138 472L295 620H346L503 472H453L320 591L188 472H138Z" />
<glyph unicode="_" glyph-name="underscore" horiz-adv-x="817" d="M88 -264T88 -244T115 -224H693Q728 -224 728 -244T700 -264H116Q88 -264 88 -244Z" />
<glyph unicode="`" glyph-name="grave" horiz-adv-x="525" d="M101 667H166L316 538H275Q265 538 228 566Q221 572 101 667Z" />
<glyph unicode="a" glyph-name="a" horiz-adv-x="492" d="M55 115Q55 140 68 163T110 210T200 248T346 265V307Q346 372 319 403Q290 438 245 438Q208 438 173 428T127 410T87 386L82 442Q163 485 246 485Q321 485 363 439T410 335L411 301V0H348V69Q286 -8 173
-8H166Q111 -8 83 32T55 115ZM117 117Q117 81 148 62T220 42Q238 42 257 46T297 61T332 93T346 145V234Q245 233 181 201T117 117Z" />
<glyph unicode="b" glyph-name="b" horiz-adv-x="517" d="M80 0V695H143V405Q205 480 293 480Q367 480 418 410T469 238Q469 134 412 63T274 -8Q197 -8 145 66V0H80ZM144 131Q144 99 173 71T243 42Q270 42 295 51T347 80T389 140T405 236Q405 294 390 335T349
396T301 422T255 430Q202 430 164 389Q149 369 147 365T145 343V145Q145 142 145 138T144 131Z" />
<glyph unicode="c" glyph-name="c" horiz-adv-x="467" d="M46 237Q46 337 108 411T267 485Q319 485 351 476T431 442L421 387Q391 405 376 412T332 426T267 433Q196 433 154 380T111 238Q112 143 157 94T265 44Q306 44 342 57T394 81T432 111L437 55Q360 -8 264
-8Q173 -8 110 63T46 237Z" />
<glyph unicode="d" glyph-name="d" horiz-adv-x="517" d="M46 236Q46 342 103 411T235 480Q315 480 372 410V695H435V0H371V42L370 73Q315 -8 228 -8Q151 -8 99 64T46 236ZM111 236Q111 178 126 137T166 77T214 50T260 42Q316 42 353 91Q356 96 360 102T365 110T368
117T370 127T371 141V352Q371 381 341 405T269 430Q253 430 235 426T194 410T154 377T124 320T111 236Z" />
<glyph unicode="e" glyph-name="e" horiz-adv-x="467" d="M42 240Q42 338 101 411T248 484Q279 484 307 475T366 442T414 370T433 250H102V242Q102 151 151 97T264 42Q349 42 426 111L431 56Q354 -8 264 -8Q172 -8 107 63T42 240ZM107 290H379Q372 366 334 400T248
434Q197 434 158 393T107 290Z" />
<glyph unicode="f" glyph-name="f" horiz-adv-x="321" d="M28 422V472H113V536Q113 562 114 575T128 615T167 665Q213 703 281 703Q316 703 363 695V638Q317 652 278 652Q238 652 207 636T175 580V472H300V422H177V0H113V422H28Z" />
<glyph unicode="g" glyph-name="g" horiz-adv-x="517" d="M46 237Q46 340 105 410T243 480Q324 480 372 393V480H435V9Q435 -78 385 -131T257 -184Q165 -184 72 -139V-85Q102 -100 120 -108T177 -125T255 -134Q302 -134 336 -98T371 12V90L370 125Q354 84 321
51T232 17Q157 17 102 80T46 237ZM111 237Q111 164 156 116T260 67Q291 67 314 84T348 129T365 187T371 250H372V316Q372 352 346 391T272 430Q208 430 160 374T111 237Z" />
<glyph unicode="h" glyph-name="h" horiz-adv-x="517" d="M80 0V695H143V421L144 378Q160 416 196 448T292 480Q332 480 360 468T403 440T425 398T434 356T435 315V0H371V311Q371 329 371 340T364 370T347 400T314 421T259 430Q214 430 180 394T145 262V0H80Z" />
<glyph unicode="i" glyph-name="i" horiz-adv-x="225" d="M80 631V694H143V631H80ZM80 0V472H143V0H80Z" />
<glyph unicode="j" glyph-name="j" horiz-adv-x="254" d="M-76 -146L-62 -95Q-17 -122 24 -122Q89 -122 107 -80Q110 -72 110 -55V472H174V-45Q174 -112 127 -149Q94 -175 47 -175Q-15 -175 -76 -146ZM110 631V694H173V631H110Z" />
<glyph unicode="k" glyph-name="k" horiz-adv-x="487" d="M82 0V695H142V245L367 472H446L269 294L469 0H400L228 252L141 165V0H82Z" />
<glyph unicode="l" glyph-name="l" horiz-adv-x="225" d="M80 0V695H143V0H80Z" />
<glyph unicode="m" glyph-name="m" horiz-adv-x="808" d="M80 0V472H142V375Q158 414 195 447T293 480Q334 480 362 469T405 437T423 406T432 377Q433 374 433 373Q451 414 488 447T585 480Q625 480 653 468T696 440T717 398T726 355T727 315V0H663V311Q663 329
662 340T655 370T638 400T605 421T550 430Q496 430 466 386T436 270V0H371V311Q371 329 371 340T364 370T347 400T314 421T259 430Q205 430 175 386T144 270Q144 268 144 266T145 262V0H80Z" />
<glyph unicode="n" glyph-name="n" horiz-adv-x="517" d="M80 0V472H142V375Q161 419 199 449T292 480Q332 480 360 468T403 439T425 397T434 355T435 315V0H371V311Q371 329 371 340T364 370T347 400T314 421T259 430Q214 430 180 394T145 262V0H80Z" />
<glyph unicode="o" glyph-name="o" horiz-adv-x="525" d="M40 236Q40 341 105 412T262 484Q355 484 419 411T483 236Q483 131 417 62T262 -8Q170 -8 105 63T40 236ZM104 248Q104 186 120 143T163 80T214 52T262 44Q288 44 313 53T364 84T404 146T419 245Q419 299
404 338T364 397T314 425T262 434T211 426T160 398T120 340T104 248Z" />
<glyph unicode="p" glyph-name="p" horiz-adv-x="517" d="M80 -167V472H143V404Q206 480 295 480Q368 480 418 410T469 238Q469 129 410 61T274 -8Q239 -8 208 9T168 37T145 66V-167H80ZM145 130Q145 99 173 71T243 42Q308 42 356 98T405 237Q405 316 360 372T253
429Q201 429 165 389Q150 370 148 365T145 342V130Z" />
<glyph unicode="q" glyph-name="q" horiz-adv-x="517" d="M46 235Q46 338 104 409T242 480Q270 480 293 471T332 445T355 419T372 393V480H435V-167H371V42L370 77Q361 61 348 46T303 11T232 -8Q157 -8 102 61T46 235ZM111 235Q111 154 155 98T262 42Q307 42 339
76T372 149V315Q370 357 343 393T272 429Q210 429 161 375T111 235Z" />
<glyph unicode="r" glyph-name="r" horiz-adv-x="346" d="M80 0V472H140V396L141 349Q149 369 163 389T199 430T255 465T330 480V424Q298 423 267 413T207 382T161 324T143 236V0H80Z" />
<glyph unicode="s" glyph-name="s" horiz-adv-x="402" d="M29 39L39 97Q123 44 207 44Q268 44 294 69T320 126Q320 156 299 175T251 203Q240 206 193 214T114 238T58 284Q35 316 35 352Q35 375 42 395T67 437T119 472T205 485H208Q284 485 360 451L350 396Q273
435 198 435Q139 435 116 412T93 360Q93 338 109 319T156 290Q162 288 210 279T275 263Q317 248 347 215T378 132Q378 78 340 35T208 -8T29 39Z" />
<glyph unicode="t" glyph-name="t" horiz-adv-x="379" d="M19 422V472H115V607H176V472H331V422H176V138Q176 44 233 44Q245 44 256 45T276 50T293 57T308 65T320 72T329 80T336 85L349 36Q278 -8 197 -8Q114 -8 114 131V422H19Z" />
<glyph unicode="u" glyph-name="u" horiz-adv-x="517" d="M80 133V472H145V122Q145 76 162 58T237 39Q293 39 332 74T371 175V472H435V0H372V86Q346 42 299 17T196 -8Q157 -8 132 4T97 41T83 84T80 133Z" />
<glyph unicode="v" glyph-name="v" horiz-adv-x="458" d="M14 472H78L229 65L380 472H443L265 -3H191L14 472Z" />
<glyph unicode="w" glyph-name="w" horiz-adv-x="692" d="M14 472H77Q176 147 196 65Q199 87 237 214L315 472H373Q479 119 494 65L510 124L615 472H676L531 -3H459L384 246Q344 392 341 408Q333 351 224 -3H159L14 472Z" />
<glyph unicode="x" glyph-name="x" horiz-adv-x="458" d="M0 0L197 243V244L6 472H78L226 289L369 472H440L254 243L458 0H386L226 207H225L71 0H0Z" />
<glyph unicode="y" glyph-name="y" horiz-adv-x="458" d="M14 472H79L183 214Q226 100 234 65Q241 113 380 472H443L246 -39Q235 -68 226 -86T200 -128T160 -163T107 -175Q71 -175 29 -168L24 -112Q70 -124 107 -124Q123 -124 136 -117T157 -104T175 -78T187 -51T201
-16Q205 -5 205 1Q205 6 199 20L14 472Z" />
<glyph unicode="z" glyph-name="z" horiz-adv-x="450" d="M29 0V34L332 423H44V472H419V439L117 50H423V0H29Z" />
<glyph unicode="{" glyph-name="braceleft" horiz-adv-x="525" d="M62 239V289Q125 290 174 316T229 394L230 418V627Q230 750 425 750H462V700H437Q349 700 322 682T294 620V415Q294 374 277 344T234 298T189 277T152 267L123 264Q145 263 170 257T225 236T274
189T294 113V-92Q294 -107 295 -114T301 -133T319 -152T353 -165Q386 -172 462 -172V-222H425Q330 -222 283 -192T231 -119Q230 -110 230 -92V110Q228 146 221 162Q204 198 161 218T62 239Z" />
<glyph unicode="|" glyph-name="bar" horiz-adv-x="292" d="M125 -193V720Q125 749 145 749T165 720V-193Q165 -221 145 -221T125 -193Z" />
<glyph unicode="}" glyph-name="braceright" horiz-adv-x="525" d="M62 -172H87Q175 -172 202 -154T230 -92V113Q230 243 401 264Q379 265 355 271T300 292T250 339T230 415V620Q230 640 227 651T211 675T167 694T86 700H62V750H99Q194 750 241 720T293 646Q294
637 294 620V418Q296 381 303 365Q320 329 363 310T462 289V239Q399 238 350 212T295 134L294 110V-92Q294 -108 293 -119T281 -152T251 -186T193 -211T99 -222H62V-172Z" />
<glyph unicode="~" glyph-name="asciitilde" horiz-adv-x="642" d="M87 589Q88 639 127 666T215 694Q254 694 321 667T424 639Q496 639 503 695H554Q553 645 514 617T426 589Q387 589 319 616T216 644Q202 644 188 642T157 626T137 589H87Z" />
</font>
</defs>
</svg>
